<svg width="24" height="24" viewBox="0 0 24 24" xmlns="http://www.w3.org/2000/svg">
    <!-- Ears raised even higher -->
    <circle fill="#C5C5C5" cx="6" cy="3" r="2.5"/>
    <circle fill="#C5C5C5" cx="18" cy="3" r="2.5"/>
    
    <!-- Original face design -->
    <path fill="#C5C5C5" d="M12 2C6.48 2 2 6.48 2 12s4.48 10 10 10 10-4.48 10-10S17.52 2 12 2zm0 18c-4.41 0-8-3.59-8-8s3.59-8 8-8 8 3.59 8 8-3.59 8-8 8z"/>
    <circle fill="#C5C5C5" cx="8" cy="10" r="2"/>
    <circle fill="#C5C5C5" cx="16" cy="10" r="2"/>
    <path fill="#C5C5C5" d="M12 16c-1.5 0-2.8-.8-3.5-2l-1.7 1c1.1 1.9 3.1 3 5.2 3s4.1-1.1 5.2-3l-1.7-1c-.7 1.2-2 2-3.5 2z"/>
    
    <!-- Nose dot -->
    <circle fill="#C5C5C5" cx="12" cy="13" r="0.8"/>
</svg>